<!--?xml version="1.0" standalone="no"?-->
              <svg id="sw-js-blob-svg" viewBox="0 0 100 100" xmlns="http://www.w3.org/2000/svg" version="1.1">
                    <defs> 
                        <linearGradient id="sw-gradient" x1="0" x2="1" y1="1" y2="0">
                            <stop id="stop1" stop-color="rgba(255, 200, 21, 0.27)" offset="0%"></stop>
                            <stop id="stop2" stop-color="rgba(255, 200, 21, 0.31)" offset="100%"></stop>
                        </linearGradient>
                    </defs>
                <path fill="url(#sw-gradient)" d="M19.9,-34.2C25.8,-31,30.7,-25.8,33,-19.7C35.3,-13.7,35,-6.8,35.2,0.1C35.4,7.1,36.1,14.2,33.2,19.2C30.3,24.2,23.8,27.1,17.7,30.5C11.6,33.8,5.8,37.5,-0.2,37.8C-6.2,38.2,-12.3,35.1,-19.1,32.1C-25.9,29.2,-33.2,26.3,-37.6,21C-42,15.6,-43.4,7.8,-41.4,1.2C-39.3,-5.4,-33.8,-10.9,-28.9,-15.3C-23.9,-19.6,-19.5,-22.9,-14.8,-26.8C-10.1,-30.6,-5,-35,1,-36.7C7,-38.4,13.9,-37.3,19.9,-34.2Z" width="100%" height="100%" transform="translate(50 50)" stroke-width="0" style="transition: all 0.3s ease 0s;" stroke="url(#sw-gradient)"></path>
              </svg>