<!--?xml version="1.0" standalone="no"?-->
              <svg id="sw-js-blob-svg" viewBox="0 0 100 100" xmlns="http://www.w3.org/2000/svg" version="1.1">
                    <defs> 
                        <linearGradient id="sw-gradient" x1="0" x2="1" y1="1" y2="0">
                            <stop id="stop1" stop-color="rgba(235, 54, 105, 0.33)" offset="0%"></stop>
                            <stop id="stop2" stop-color="rgba(235, 54, 105, 0.32)" offset="100%"></stop>
                        </linearGradient>
                    </defs>
                <path fill="url(#sw-gradient)" d="M17.7,-31.2C22.3,-28,24.9,-21.9,27.7,-16.3C30.4,-10.6,33.3,-5.3,35.5,1.3C37.7,7.9,39.3,15.8,37.4,22.9C35.6,30.1,30.2,36.5,23.3,40.6C16.5,44.7,8.3,46.5,0,46.5C-8.3,46.5,-16.5,44.7,-21.1,39.3C-25.7,34,-26.7,25,-29.7,17.8C-32.6,10.6,-37.7,5.3,-40.1,-1.4C-42.6,-8.2,-42.5,-16.3,-39.1,-22.8C-35.8,-29.4,-29.2,-34.2,-22.1,-36.1C-15.1,-37.9,-7.5,-36.7,-0.5,-35.9C6.5,-35,13.1,-34.5,17.7,-31.2Z" width="100%" height="100%" transform="translate(50 50)" stroke-width="0" style="transition: all 0.3s ease 0s;" stroke="url(#sw-gradient)"></path>
              </svg>